<svg width="82" height="31" viewBox="0 0 82 31" fill="none" xmlns="http://www.w3.org/2000/svg">
<path d="M13.6629 0.500021C13.5028 0.500152 13.3339 0.50029 13.1756 0.519178C11.3355 0.672676 9.64452 1.45435 8.4403 2.87838C7.12981 4.4281 6.81289 6.06087 6.82824 8.03378L3.3225 8.02842C3.16547 8.02828 3.00314 8.02379 2.83852 8.01923C2.38113 8.00657 1.90604 7.99341 1.47757 8.07191C1.21917 8.11928 0.993704 8.24495 0.811985 8.43411C0.493831 8.76532 0.4861 9.18367 0.506774 9.61226C0.539381 10.288 0.59742 10.9647 0.655392 11.6406C0.686929 12.0082 0.718473 12.376 0.745881 12.7432L1.32775 20.2617L1.61087 23.8925C1.62481 24.0717 1.63595 24.2527 1.64714 24.4345C1.68712 25.0843 1.72769 25.7436 1.89923 26.3652C2.19558 27.4222 2.78292 28.3746 3.59431 29.1143C4.30343 29.7582 5.16054 30.2176 6.08966 30.4513C6.87553 30.641 7.78853 30.6195 8.64613 30.5994C8.90139 30.5934 9.15173 30.5875 9.39236 30.5873L14.1119 30.5859L18.2338 30.5877C18.459 30.5877 18.6908 30.5932 18.9254 30.5988C19.6868 30.6169 20.4803 30.6358 21.1918 30.4699C22.1926 30.237 23.2055 29.6875 23.9362 28.963C24.6161 28.2885 25.1594 27.3879 25.3968 26.4575C25.5784 25.7456 25.624 24.9648 25.6682 24.2075C25.6825 23.9633 25.6966 23.7214 25.7151 23.4852L26.1019 18.5057L26.5843 12.3916C26.6076 12.0896 26.6378 11.7844 26.6681 11.4785C26.7337 10.8156 26.7998 10.1476 26.7983 9.49245C26.7976 9.08945 26.7123 8.71351 26.4235 8.41424C26.2248 8.20802 25.8999 8.10732 25.625 8.06247C25.2129 7.99528 24.7611 8.00727 24.324 8.01886C24.1623 8.02315 24.0027 8.02738 23.8479 8.02754C22.7454 8.02539 21.6424 8.02929 20.5399 8.03917L20.4925 8.03986C20.5184 5.92706 20.048 4.11406 18.5291 2.56884C17.2599 1.25378 15.5134 0.507657 13.686 0.5L13.6629 0.500021ZM20.3448 12.5514L20.4042 12.5549C20.4058 12.5589 20.4073 12.5627 20.4087 12.5661C20.4094 12.568 20.4102 12.5697 20.4109 12.5714C20.4134 12.5777 20.4158 12.5832 20.4179 12.5879L20.4203 12.5936C20.4312 12.6183 20.4332 12.6228 20.4327 12.6626C20.4137 15.2533 19.7202 18.5888 17.8815 20.4862C16.1788 22.2432 13.5347 23.1054 11.1235 23.1532C12.2466 21.0408 14.0514 19.0374 15.913 17.5496C16.2009 17.3197 16.5023 17.1118 16.8039 16.9039C16.9981 16.77 17.1923 16.6361 17.3831 16.4961C17.5683 16.3602 17.8177 16.1758 17.844 15.9279C17.868 15.6996 17.7466 15.5225 17.6037 15.3594C17.4035 15.2434 17.257 15.195 17.0284 15.262C16.7038 15.3573 16.3768 15.5974 16.0816 15.8141C16.0034 15.8715 15.9274 15.9274 15.8543 15.9783C13.4673 17.6687 11.4838 19.866 10.046 22.413C9.99749 20.3408 10.4694 18.605 11.7402 16.9381C13.6474 14.4367 17.2978 12.9666 20.3448 12.5514ZM1.81457 9.32615L25.4974 9.32578C25.4133 10.1234 25.3589 10.9283 25.3045 11.732C25.2743 12.1797 25.244 12.6274 25.2086 13.0731L24.5709 21.0641L24.3325 24.0088C24.3219 24.1367 24.3122 24.2651 24.3025 24.3939C24.2642 24.902 24.2256 25.4146 24.1276 25.912C24.0269 26.4225 23.8315 26.8662 23.5668 27.3114C23.4647 27.4663 23.3539 27.6155 23.235 27.758C22.5485 28.5784 21.4215 29.1894 20.351 29.2704C19.7681 29.3144 19.1683 29.3034 18.5742 29.2925C18.3171 29.2877 18.0609 29.283 17.8075 29.2828L12.8941 29.2813L8.98425 29.2831C8.79567 29.2832 8.60373 29.2872 8.41036 29.2912C7.81738 29.3035 7.21023 29.316 6.64032 29.2179C5.89281 29.0874 5.19423 28.7581 4.61819 28.2644C3.92818 27.6825 3.43297 26.9034 3.19933 26.0316C3.0395 25.4538 2.99965 24.8381 2.96052 24.2336C2.95069 24.0817 2.9409 23.9306 2.92927 23.7809L2.69673 20.7847L1.81457 9.32615ZM20.8707 11.163L20.8531 11.1648C17.2581 11.5807 13.1654 13.0594 10.8417 15.9715C9.3481 17.8431 8.53212 20.2775 8.80163 22.6748C8.86081 23.2012 8.98003 23.7043 9.15187 24.2049C9.13243 24.2547 9.10871 24.3143 9.08172 24.3821C8.78668 25.1236 8.10091 26.8472 8.33942 27.3569C8.40841 27.5042 8.54893 27.6031 8.70129 27.6515C8.76408 27.6712 8.8273 27.6825 8.89264 27.6902C9.09404 27.657 9.28021 27.6154 9.40144 27.4353C9.53162 27.2415 9.66492 26.776 9.77894 26.3779C9.83326 26.1882 9.88321 26.0138 9.9264 25.8912C10.0741 25.4717 10.2418 25.059 10.4093 24.6469L10.4113 24.6421C10.4309 24.5938 10.4505 24.5456 10.47 24.4974C13.4345 24.5061 16.6007 23.5782 18.7453 21.4622C21.1437 19.0953 21.7478 15.2787 21.7526 12.0488C21.7529 11.7942 21.7354 11.492 21.5491 11.2972C21.4346 11.1774 21.2622 11.1413 21.1021 11.1448C21.0249 11.1465 20.9476 11.1548 20.8707 11.163ZM13.3747 1.79533C13.4895 1.78822 13.6048 1.7818 13.7196 1.7826C15.1277 1.79249 16.5376 2.42227 17.5272 3.41464C18.8744 4.7659 19.15 6.19982 19.1529 8.03389L13.9938 8.03108L8.18838 8.0383C8.14397 6.46179 8.39788 5.02185 9.43215 3.77702C10.4257 2.58116 11.8438 1.93209 13.3747 1.79533Z" fill="#030A06"/>
<path d="M20.4042 12.5549L20.3448 12.5514C17.2978 12.9666 13.6474 14.4367 11.7402 16.9381C10.4693 18.6049 9.99747 20.3408 10.046 22.413C11.4838 19.866 13.4673 17.6686 15.8543 15.9783C15.9274 15.9274 16.0034 15.8715 16.0816 15.8141C16.3768 15.5974 16.7038 15.3573 17.0283 15.262C17.257 15.195 17.4035 15.2434 17.6037 15.3594C17.7466 15.5225 17.868 15.6996 17.844 15.9279C17.8177 16.1758 17.5683 16.3602 17.3831 16.4961C17.1923 16.636 16.9981 16.77 16.8039 16.9039C16.5023 17.1118 16.2009 17.3196 15.913 17.5496C14.0514 19.0374 12.2466 21.0408 11.1234 23.1532C13.5347 23.1054 16.1788 22.2432 17.8815 20.4862C19.7202 18.5888 20.4137 15.2533 20.4327 12.6626C20.4332 12.6228 20.4312 12.6183 20.4203 12.5936C20.4177 12.5877 20.4145 12.5804 20.4108 12.5714C20.4088 12.5665 20.4066 12.561 20.4042 12.5549ZM20.8531 11.1648L20.8707 11.163C20.9476 11.1548 21.0248 11.1465 21.1021 11.1448C21.2621 11.1413 21.4346 11.1774 21.5491 11.2972C21.7354 11.492 21.7529 11.7941 21.7525 12.0488C21.7478 15.2787 21.1436 19.0953 18.7453 21.4622C16.6007 23.5782 13.4345 24.5061 10.47 24.4974C10.4504 24.5456 10.4308 24.5938 10.4112 24.6421L10.4093 24.6469C10.2418 25.059 10.0741 25.4717 9.92638 25.8912C9.8832 26.0138 9.83325 26.1882 9.77893 26.3779C9.66491 26.776 9.53161 27.2415 9.40143 27.4353C9.2802 27.6154 9.09403 27.657 8.89262 27.6902C8.82729 27.6825 8.76406 27.6712 8.70128 27.6515C8.54891 27.603 8.40839 27.5042 8.33941 27.3569C8.1009 26.8472 8.78667 25.1236 9.08171 24.3821C9.10869 24.3143 9.13241 24.2547 9.15186 24.2049C8.98002 23.7043 8.86079 23.2012 8.80162 22.6748C8.5321 20.2775 9.34809 17.8431 10.8416 15.9715C13.1654 13.0594 17.2581 11.5807 20.8531 11.1648Z" fill="#030A06"/>
<path d="M20.8708 11.163L20.8532 11.1648C17.2582 11.5807 13.1655 13.0594 10.8418 15.9715C9.34824 17.8431 8.53225 20.2775 8.80177 22.6748C8.86094 23.2012 8.98017 23.7043 9.15201 24.2049C9.13256 24.2547 9.10884 24.3143 9.08186 24.3821C8.78682 25.1236 8.10105 26.8472 8.33956 27.3569C8.40854 27.5042 8.54906 27.603 8.70143 27.6515C8.76421 27.6712 8.82744 27.6825 8.89277 27.6902C9.09418 27.657 9.28035 27.6154 9.40158 27.4353C9.53176 27.2415 9.66499 26.7763 9.77901 26.3781C9.83335 26.1884 9.88333 26.0139 9.92653 25.8912C10.0742 25.4716 10.2419 25.059 10.4094 24.6469C10.4101 24.6453 10.4107 24.6437 10.4114 24.6421C10.431 24.5938 10.4506 24.5456 10.4702 24.4974C13.4346 24.5061 16.6008 23.5782 18.7454 21.4622C21.1438 19.0953 21.7479 15.2787 21.7527 12.0488C21.753 11.7941 21.7355 11.492 21.5492 11.2972C21.4347 11.1774 21.2623 11.1413 21.1022 11.1448C21.025 11.1465 20.9478 11.1548 20.8708 11.163ZM20.3449 12.5514L20.4044 12.5549C20.4068 12.561 20.409 12.5665 20.411 12.5714C20.4147 12.5805 20.4179 12.5876 20.4205 12.5936C20.4313 12.6183 20.4333 12.6228 20.4328 12.6626C20.4138 15.2533 19.7204 18.5888 17.8817 20.4862C16.179 22.2432 13.5349 23.1054 11.1236 23.1532C12.2467 21.0408 14.0515 19.0374 15.9132 17.5496C16.2011 17.3196 16.5025 17.1118 16.8041 16.9039C16.9982 16.77 17.1925 16.636 17.3833 16.4961C17.5685 16.3602 17.8179 16.1758 17.8441 15.9279C17.8682 15.6996 17.7468 15.5225 17.6038 15.3594C17.4037 15.2434 17.2571 15.195 17.0285 15.262C16.704 15.3573 16.3769 15.5974 16.0818 15.8141C16.0036 15.8715 15.9275 15.9274 15.8545 15.9783C13.4674 17.6686 11.4839 19.866 10.0461 22.413C9.99762 20.3408 10.4695 18.6049 11.7404 16.9381C13.6475 14.4367 17.2979 12.9666 20.3449 12.5514Z" fill="#030A06"/>
<path d="M67.1602 19.9424C67.0703 17.3959 64.9334 15.4047 62.3874 15.4942C59.8406 15.5833 57.8486 17.7209 57.9385 20.2674C58.0284 22.8142 60.166 24.8058 62.7124 24.7159C65.2589 24.6256 67.2501 22.4884 67.1602 19.9424ZM62.5477 16.8785C63.2905 16.9086 63.8925 17.0872 64.4587 17.5887C65.1336 18.1859 65.5099 19.0487 65.5591 19.9424C65.6087 20.8369 65.3272 21.7436 64.7183 22.4099C64.1618 23.0188 63.4678 23.2914 62.6547 23.332C61.9127 23.3243 61.3005 23.2088 60.7152 22.7219C60.0314 22.1532 59.6449 21.3112 59.5721 20.4325C59.4969 19.5189 59.736 18.5744 60.3426 17.8735C60.9442 17.1787 61.6548 16.9395 62.5477 16.8785Z" fill="#030A06"/>
<path d="M54.3375 19.5604C54.034 17.0282 51.7331 15.2233 49.2017 15.5316C46.6771 15.8391 44.878 18.1326 45.1807 20.6578C45.4834 23.1831 47.7735 24.9864 50.2993 24.6886C52.8318 24.3896 54.641 22.0921 54.3375 19.5604ZM49.3494 16.9159C50.0881 16.8557 50.7573 16.9334 51.3811 17.3625C52.0815 17.8442 52.522 18.5882 52.6676 19.4192C52.8329 20.3629 52.6775 21.3721 52.1097 22.1584C51.6127 22.8471 50.9916 23.1888 50.1642 23.3206C49.4084 23.3593 48.7407 23.3133 48.1042 22.863C47.4177 22.3793 46.9551 21.6394 46.8211 20.8104C46.6668 19.8959 46.8516 18.8436 47.3975 18.0829C47.8772 17.4146 48.547 17.044 49.3494 16.9159Z" fill="#030A06"/>
<path d="M76.8325 15.4885C76.8097 15.4893 76.7874 15.4909 76.7646 15.4938C75.6032 15.6309 74.5574 16.193 73.8272 17.1148C72.9942 18.1671 72.7082 19.5014 72.8725 20.821C73.0072 21.9799 73.6003 23.0367 74.5192 23.7563C75.6077 24.602 76.9879 24.8168 78.3327 24.6329C79.1109 24.5263 80.2804 24.1537 80.7779 23.5061C80.9178 23.3243 80.9882 23.1022 80.956 22.8728C80.9333 22.7117 80.8625 22.5575 80.7299 22.4587C80.5773 22.3452 80.3739 22.3309 80.1929 22.3663C79.9413 22.4154 79.7157 22.571 79.5018 22.7185C79.4567 22.7496 79.4122 22.7804 79.368 22.8097C78.4287 23.2978 77.387 23.5273 76.3538 23.1925C75.6187 22.9505 75.0114 22.4229 74.6697 21.7281C74.4915 21.373 74.4028 20.9959 74.3239 20.609H78.7566C78.941 20.6093 79.139 20.6156 79.3425 20.6221C79.868 20.639 80.4308 20.657 80.8946 20.5741C81.0268 20.5505 81.1529 20.4797 81.2489 20.3861C81.467 20.1738 81.5056 19.8732 81.4991 19.5831C81.4743 18.4726 80.9528 17.3772 80.1449 16.6259C79.2122 15.7582 78.087 15.432 76.8325 15.4885ZM76.9692 16.876C77.642 16.7971 78.3205 16.9688 78.875 17.3589C79.5376 17.8299 79.8858 18.4987 80.0253 19.2858C79.4634 19.2926 78.9007 19.291 78.3383 19.2895C78.0572 19.2887 77.776 19.288 77.4952 19.2882L74.3776 19.2923C74.5204 18.8127 74.686 18.377 74.9927 17.9751C75.4869 17.328 76.1711 16.981 76.9692 16.876Z" fill="#030A06"/>
<path d="M52.1448 12.1921C53.8086 12.1526 55.4813 12.1892 57.1463 12.1864C58.0945 12.1847 59.3059 12.1078 60.2264 12.2026C60.3745 12.2181 60.4924 12.26 60.6051 12.3584C60.7654 12.4984 60.872 12.7095 60.8776 12.9234C60.8825 13.1167 60.7642 13.3384 60.6246 13.4681C60.5181 13.5666 60.3911 13.606 60.2508 13.6288C59.8676 13.6906 59.4446 13.6544 59.0557 13.654L56.9901 13.6504L56.9892 21.3165C56.9921 21.9625 57.0739 23.3716 56.9766 23.9211C56.9461 24.0936 56.8835 24.2657 56.7647 24.3979C56.637 24.5398 56.4608 24.6114 56.2713 24.6155C56.0728 24.62 55.8791 24.5764 55.736 24.432C55.5675 24.2632 55.5057 24.0147 55.485 23.784C55.4467 23.3585 55.4817 22.9082 55.4866 22.4807C55.4939 21.8482 55.4882 21.2152 55.4878 20.5827L55.4927 13.6491C54.8057 13.6524 52.4277 13.7618 51.9407 13.5409C51.7629 13.4604 51.6512 13.3359 51.5867 13.1508C51.5179 12.954 51.5492 12.7441 51.6487 12.5634C51.7651 12.3519 51.9205 12.2612 52.1448 12.1921Z" fill="#030A06"/>
<path d="M41.2618 15.4946C41.8798 15.4596 42.4837 15.4991 43.0838 15.6598C43.7174 15.8294 44.6864 16.2032 45.014 16.8045C45.1041 16.97 45.1511 17.1681 45.0875 17.3512C45.0225 17.5379 44.8452 17.6807 44.6665 17.7539C44.1454 17.9674 43.4929 17.2495 43.0027 17.0648C42.2054 16.7642 41.2467 16.7809 40.4711 17.1429C39.7585 17.4756 39.2461 18.1057 38.9808 18.8375C38.6729 19.6869 38.6469 20.7946 39.0379 21.6224C39.4003 22.3895 40.0672 22.9257 40.8583 23.2051C41.7635 23.5253 42.7067 23.3548 43.5526 22.9493C43.8147 22.8073 44.0528 22.6181 44.3515 22.5563C44.5058 22.5246 44.6582 22.5413 44.7898 22.6324C44.9518 22.7447 45.0827 22.9668 45.1042 23.1628C45.1244 23.3467 45.0529 23.5159 44.9388 23.6571C44.4439 24.2705 43.3423 24.5788 42.5926 24.6708C41.2914 24.8302 39.9361 24.5695 38.8948 23.7392C37.916 22.9741 37.2931 21.8416 37.1713 20.6054C37.0424 19.3737 37.4035 18.1407 38.1767 17.1734C38.9605 16.2097 40.03 15.6264 41.2618 15.4946Z" fill="#030A06"/>
<path d="M69.0524 13.1667C69.0784 13.1655 69.104 13.1642 69.1297 13.1634C69.3603 13.1561 69.5922 13.2179 69.7553 13.388C70.1442 13.7943 69.9896 15.1636 69.9851 15.7241C70.5147 15.7273 71.8034 15.5626 72.2004 15.9157C72.344 16.0438 72.4026 16.2212 72.403 16.4103C72.4038 16.5938 72.3562 16.7695 72.22 16.8989C71.849 17.2503 70.5094 17.112 69.9843 17.1088C69.9892 18.2347 69.837 21.7054 70.184 22.5596C70.745 23.941 71.9608 22.726 72.6544 23.0526C72.8029 23.1226 72.9245 23.2703 72.9794 23.424C73.0575 23.6429 72.988 23.8385 72.8981 24.0395C72.8826 24.0566 72.8671 24.0732 72.8517 24.0899C72.4327 24.5264 71.6456 24.6313 71.0676 24.6395C70.3968 24.6492 69.7626 24.5353 69.2671 24.0391C68.9092 23.6803 68.6867 23.1881 68.5777 22.6983C68.4092 21.9417 68.4788 21.1042 68.4792 20.3325L68.4812 17.11C68.0745 17.1096 67.6673 17.1067 67.2605 17.1002C67.1934 17.0583 67.1279 17.0152 67.0689 16.9619C66.9082 16.8171 66.835 16.6011 66.8293 16.3884C66.8244 16.2102 66.8789 16.0345 67.012 15.9112C67.3406 15.6069 68.0635 15.716 68.4812 15.7233C68.48 15.1371 68.3515 14.086 68.5728 13.5702C68.6712 13.3412 68.8319 13.2582 69.0524 13.1667Z" fill="#030A06"/>
<path fill-rule="evenodd" clip-rule="evenodd" d="M36.7793 12.9471C36.0784 12.8783 32.6478 12.9027 31.4576 12.9202C31.2388 12.9234 31.0358 12.9383 30.8576 12.9514C30.7059 12.9626 30.5722 12.9725 30.4618 12.9726C30.4618 12.9726 29.9881 13.0838 29.8345 13.2971C29.7341 13.4369 29.6998 13.6141 29.6758 13.781C29.5487 14.6672 29.4743 15.5714 29.4001 16.4726C29.3611 16.9469 29.3221 17.4204 29.2756 17.89L28.8242 22.4455C28.8122 22.5673 28.7914 22.7335 28.7677 22.9223C28.6913 23.5325 28.5854 24.3777 28.6539 24.7141C28.6918 24.9005 28.7906 25.0545 28.9555 25.1517C29.1181 25.2476 29.3025 25.3022 29.4876 25.3336L29.4893 25.3336C29.8721 25.3328 30.4492 25.3388 31.0941 25.3454C32.4312 25.3593 35.8311 25.3761 36.6217 25.3421C36.7793 25.3352 36.9464 25.3218 37.095 25.2656C37.2945 25.19 37.4586 25.0456 37.5375 24.8446C37.617 24.6425 37.5993 24.4159 37.5092 24.2206C37.4186 24.0237 37.2962 23.9188 37.0908 23.8529H30.2572C30.3712 22.8468 30.4732 21.8395 30.563 20.831L30.6437 20.0112L30.6515 19.9299C30.7049 19.9306 30.7752 19.9317 30.8588 19.9329C31.5548 19.9434 34.9424 19.9678 35.3741 19.9035C35.5325 19.8799 35.6804 19.84 35.7963 19.7233C35.9463 19.5719 36.0087 19.3629 35.9963 19.153C35.9858 18.9748 35.9069 18.7808 35.7715 18.6608C35.6811 18.581 35.5691 18.5294 35.4495 18.5127C35.0461 18.454 32.0343 18.4699 31.274 18.4797C31.0701 18.4823 30.9006 18.4845 30.7911 18.4846L31.1375 14.3977H34.8253C35.0133 14.3978 35.2092 14.4041 35.408 14.4105C35.8893 14.4259 36.3881 14.4419 36.8357 14.3725C36.9949 14.3481 37.1314 14.2936 37.2469 14.1777C37.3883 14.0357 37.4657 13.8209 37.4548 13.6216C37.4437 13.4182 37.3343 13.2246 37.1752 13.0997C37.054 13.0045 36.9312 12.9618 36.7793 12.9471Z" fill="#030A06"/>
</svg>
